<svg xmlns="http://www.w3.org/2000/svg" xmlns:xlink="http://www.w3.org/1999/xlink" version="1.1" width="1000" height="1000" viewBox="0 0 1000 1000" xml:space="preserve">
<desc>Created with Fabric.js 3.5.0</desc>
<defs>
</defs>
<rect x="0" y="0" width="100%" height="100%" fill="rgba(255,255,255,0)"/>
<g transform="matrix(-1.1364 0 0 1.1364 500.0145 500.0145)" id="22151">
<g style="" vector-effect="non-scaling-stroke">
		<g transform="matrix(1.5625 0 0 1.5625 -0.0057 86.6671)" id="Layer_1">
<path style="stroke: none; stroke-width: 1; stroke-dasharray: none; stroke-linecap: butt; stroke-dashoffset: 0; stroke-linejoin: miter; stroke-miterlimit: 4; is-custom-font: none; font-file-url: none; fill: rgb(0,0,0); fill-rule: nonzero; opacity: 1;" transform=" translate(-255.9964, -311.463)" d="M 503.467 255.996 H 8.534 c -3.208 0 -6.144 1.801 -7.603 4.659 c -1.459 2.859 -1.186 6.298 0.708 8.892 l 68.267 93.867 c 1.604 2.21 4.156 3.516 6.886 3.516 c 40.823 0 356.617 0 384.068 0 c 1.289 0 2.543 -0.299 3.695 -0.87 c 41.779 -20.855 47.437 -62.985 47.437 -101.461 C 512 259.861 508.194 255.996 503.467 255.996 z M 110.934 285.863 c 0 2.355 -1.911 4.267 -4.267 4.267 h -8.533 c -2.355 0 -4.267 -1.911 -4.267 -4.267 v -8.533 c 0 -2.355 1.911 -4.267 4.267 -4.267 h 8.533 c 2.355 0 4.267 1.911 4.267 4.267 V 285.863 z M 145.067 285.863 c 0 2.355 -1.911 4.267 -4.267 4.267 h -8.533 c -2.355 0 -4.267 -1.911 -4.267 -4.267 v -8.533 c 0 -2.355 1.911 -4.267 4.267 -4.267 h 8.533 c 2.355 0 4.267 1.911 4.267 4.267 V 285.863 z M 179.2 285.863 c 0 2.355 -1.911 4.267 -4.267 4.267 H 166.4 c -2.355 0 -4.267 -1.911 -4.267 -4.267 v -8.533 c 0 -2.355 1.911 -4.267 4.267 -4.267 h 8.533 c 2.355 0 4.267 1.911 4.267 4.267 V 285.863 z M 213.334 285.863 c 0 2.355 -1.911 4.267 -4.267 4.267 h -8.533 c -2.355 0 -4.267 -1.911 -4.267 -4.267 v -8.533 c 0 -2.355 1.911 -4.267 4.267 -4.267 h 8.533 c 2.355 0 4.267 1.911 4.267 4.267 V 285.863 z M 247.467 285.863 c 0 2.355 -1.911 4.267 -4.267 4.267 h -8.533 c -2.355 0 -4.267 -1.911 -4.267 -4.267 v -8.533 c 0 -2.355 1.911 -4.267 4.267 -4.267 h 8.533 c 2.355 0 4.267 1.911 4.267 4.267 V 285.863 z M 281.6 285.863 c 0 2.355 -1.911 4.267 -4.267 4.267 H 268.8 c -2.355 0 -4.267 -1.911 -4.267 -4.267 v -8.533 c 0 -2.355 1.911 -4.267 4.267 -4.267 h 8.533 c 2.355 0 4.267 1.911 4.267 4.267 V 285.863 z M 315.734 285.863 c 0 2.355 -1.911 4.267 -4.267 4.267 h -8.533 c -2.355 0 -4.267 -1.911 -4.267 -4.267 v -8.533 c 0 -2.355 1.911 -4.267 4.267 -4.267 h 8.533 c 2.355 0 4.267 1.911 4.267 4.267 V 285.863 z M 349.867 285.863 c 0 2.355 -1.911 4.267 -4.267 4.267 h -8.533 c -2.355 0 -4.267 -1.911 -4.267 -4.267 v -8.533 c 0 -2.355 1.911 -4.267 4.267 -4.267 h 8.533 c 2.355 0 4.267 1.911 4.267 4.267 V 285.863 z M 384 285.863 c 0 2.355 -1.911 4.267 -4.267 4.267 H 371.2 c -2.355 0 -4.267 -1.911 -4.267 -4.267 v -8.533 c 0 -2.355 1.911 -4.267 4.267 -4.267 h 8.533 c 2.355 0 4.267 1.911 4.267 4.267 V 285.863 z M 418.134 285.863 c 0 2.355 -1.911 4.267 -4.267 4.267 h -8.533 c -2.355 0 -4.267 -1.911 -4.267 -4.267 v -8.533 c 0 -2.355 1.911 -4.267 4.267 -4.267 h 8.533 c 2.355 0 4.267 1.911 4.267 4.267 V 285.863 z M 452.267 285.863 c 0 2.355 -1.911 4.267 -4.267 4.267 h -8.533 c -2.355 0 -4.267 -1.911 -4.267 -4.267 v -8.533 c 0 -2.355 1.911 -4.267 4.267 -4.267 H 448 c 2.355 0 4.267 1.911 4.267 4.267 V 285.863 z" stroke-linecap="round"/>
</g>
		<g transform="matrix(1.5625 0 0 1.5625 105.0946 -133.3363)" id="Layer_1">
<path style="stroke: none; stroke-width: 1; stroke-dasharray: none; stroke-linecap: butt; stroke-dashoffset: 0; stroke-linejoin: miter; stroke-miterlimit: 4; is-custom-font: none; font-file-url: none; fill: rgb(0,0,0); fill-rule: nonzero; opacity: 1;" transform=" translate(-323.2573, -170.6625)" d="M 439.45 190.451 l -5.589 -14.353 c -1.271 -3.277 -4.429 -5.436 -7.945 -5.436 h -33.382 v -21.333 c 0 -2.355 -1.911 -4.267 -4.267 -4.267 h -8.533 c -2.355 0 -4.267 1.911 -4.267 4.267 v 21.333 H 332.8 v -21.333 c 0 -2.355 -1.911 -4.267 -4.267 -4.267 H 320 c -2.355 0 -4.267 1.911 -4.267 4.267 v 21.333 h -42.667 v -21.333 c 0 -2.355 -1.911 -4.267 -4.267 -4.267 h -8.533 c -2.355 0 -4.267 1.911 -4.267 4.267 v 21.333 h -35.396 c -3.516 0 -6.673 2.159 -7.953 5.436 l -5.589 14.345 c -1.084 2.799 0.981 5.82 3.977 5.82 h 224.435 C 438.477 196.263 440.542 193.242 439.45 190.451 z" stroke-linecap="round"/>
</g>
		<g transform="matrix(1.5625 0 0 1.5625 64.1227 -46.6698)" id="Layer_1">
<path style="stroke: none; stroke-width: 1; stroke-dasharray: none; stroke-linecap: butt; stroke-dashoffset: 0; stroke-linejoin: miter; stroke-miterlimit: 4; is-custom-font: none; font-file-url: none; fill: rgb(0,0,0); fill-rule: nonzero; opacity: 1;" transform=" translate(-297.0367, -226.128)" d="M 475.836 233.237 l -5.052 -14.234 c -1.203 -3.405 -4.429 -5.675 -8.038 -5.675 H 131.328 c -3.61 0 -6.835 2.27 -8.038 5.675 l -5.052 14.225 c -0.99 2.782 1.067 5.7 4.011 5.7 h 349.568 C 474.761 238.929 476.826 236.011 475.836 233.237 z" stroke-linecap="round"/>
</g>
</g>
</g>
</svg>